<svg width="128" height="92" viewBox="0 0 128 92" fill="none" xmlns="http://www.w3.org/2000/svg"><circle cx="91.5" cy="88.5" r="3.5" fill="#ff8008" fill-opacity=".3"/><circle cx="91.5" cy="76.5" r="3.5" fill="#ff8008" fill-opacity=".3"/><circle cx="91.5" cy="64.5" r="3.5" fill="#ff8008" fill-opacity=".3"/><circle cx="102.5" cy="64.5" r="3.5" fill="#ff8008" fill-opacity=".3"/><circle cx="113.5" cy="64.5" r="3.5" fill="#ff8008" fill-opacity=".3"/><circle cx="124.5" cy="64.5" r="3.5" fill="#ff8008" fill-opacity=".3"/><circle cx="102.5" cy="76.5" r="3.5" fill="#ff8008" fill-opacity=".3"/><circle cx="113.5" cy="76.5" r="3.5" fill="#ff8008" fill-opacity=".3"/><circle cx="124.5" cy="76.5" r="3.5" fill="#ff8008" fill-opacity=".3"/><circle cx="102.5" cy="88.5" r="3.5" fill="#ff8008" fill-opacity=".3"/><circle cx="113.5" cy="88.5" r="3.5" fill="#ff8008" fill-opacity=".3"/><circle cx="124.5" cy="88.5" r="3.5" fill="#ff8008" fill-opacity=".3"/><circle cx="91.5" cy="51.5" r="3.5" fill="#ff8008" fill-opacity=".3"/><circle cx="102.5" cy="51.5" r="3.5" fill="#ff8008" fill-opacity=".3"/><circle cx="69.5" cy="88.5" r="3.5" fill="#ff8008" fill-opacity=".3"/><circle cx="80.5" cy="88.5" r="3.5" fill="#ff8008" fill-opacity=".3"/><circle cx="69.5" cy="76.5" r="3.5" fill="#ff8008" fill-opacity=".3"/><circle cx="80.5" cy="76.5" r="3.5" fill="#ff8008" fill-opacity=".3"/><circle cx="69.5" cy="64.5" r="3.5" fill="#ff8008" fill-opacity=".3"/><circle cx="80.5" cy="64.5" r="3.5" fill="#ff8008" fill-opacity=".3"/><circle cx="69.5" cy="51.5" r="3.5" fill="#ff8008" fill-opacity=".3"/><circle cx="80.5" cy="51.5" r="3.5" fill="#ff8008" fill-opacity=".3"/><circle cx="113.5" cy="51.5" r="3.5" fill="#ff8008" fill-opacity=".3"/><circle cx="124.5" cy="51.5" r="3.5" fill="#ff8008" fill-opacity=".3"/><circle cx="91.5" cy="40.5" r="3.5" fill="#ff8008" fill-opacity=".3"/><circle cx="102.5" cy="40.5" r="3.5" fill="#ff8008" fill-opacity=".3"/><circle cx="113.5" cy="40.5" r="3.5" fill="#ff8008" fill-opacity=".3"/><circle cx="124.5" cy="40.5" r="3.5" fill="#ff8008" fill-opacity=".3"/><circle cx="91.5" cy="28.5" r="3.5" fill="#ff8008" fill-opacity=".3"/><circle cx="102.5" cy="28.5" r="3.5" fill="#ff8008" fill-opacity=".3"/><circle cx="113.5" cy="28.5" r="3.5" fill="#ff8008" fill-opacity=".3"/><circle cx="124.5" cy="28.5" r="3.5" fill="#ff8008" fill-opacity=".3"/><circle cx="91.5" cy="16.5" r="3.5" fill="#ff8008" fill-opacity=".3"/><circle cx="102.5" cy="16.5" r="3.5" fill="#ff8008" fill-opacity=".3"/><circle cx="113.5" cy="16.5" r="3.5" fill="#ff8008" fill-opacity=".3"/><circle cx="124.5" cy="16.5" r="3.5" fill="#ff8008" fill-opacity=".3"/><circle cx="91.5" cy="3.5" r="3.5" fill="#ff8008" fill-opacity=".3"/><circle cx="102.5" cy="3.5" r="3.5" fill="#ff8008" fill-opacity=".3"/><circle cx="69.5" cy="40.5" r="3.5" fill="#ff8008" fill-opacity=".3"/><circle cx="80.5" cy="40.5" r="3.5" fill="#ff8008" fill-opacity=".3"/><circle cx="69.5" cy="28.5" r="3.5" fill="#ff8008" fill-opacity=".3"/><circle cx="80.5" cy="28.5" r="3.5" fill="#ff8008" fill-opacity=".3"/><circle cx="69.5" cy="16.5" r="3.5" fill="#ff8008" fill-opacity=".3"/><circle cx="80.5" cy="16.5" r="3.5" fill="#ff8008" fill-opacity=".3"/><circle cx="69.5" cy="3.5" r="3.5" fill="#ff8008" fill-opacity=".3"/><circle cx="80.5" cy="3.5" r="3.5" fill="#ff8008" fill-opacity=".3"/><circle cx="113.5" cy="3.5" r="3.5" fill="#ff8008" fill-opacity=".3"/><circle cx="124.5" cy="3.5" r="3.5" fill="#ff8008" fill-opacity=".3"/><circle cx="25.5" cy="88.5" r="3.5" fill="#ff8008" fill-opacity=".3"/><circle cx="36.5" cy="88.5" r="3.5" fill="#ff8008" fill-opacity=".3"/><circle cx="47.5" cy="88.5" r="3.5" fill="#ff8008" fill-opacity=".3"/><circle cx="58.5" cy="88.5" r="3.5" fill="#ff8008" fill-opacity=".3"/><circle cx="25.5" cy="76.5" r="3.5" fill="#ff8008" fill-opacity=".3"/><circle cx="36.5" cy="76.5" r="3.5" fill="#ff8008" fill-opacity=".3"/><circle cx="47.5" cy="76.5" r="3.5" fill="#ff8008" fill-opacity=".3"/><circle cx="58.5" cy="76.5" r="3.5" fill="#ff8008" fill-opacity=".3"/><circle cx="25.5" cy="64.5" r="3.5" fill="#ff8008" fill-opacity=".3"/><circle cx="36.5" cy="64.5" r="3.5" fill="#ff8008" fill-opacity=".3"/><circle cx="47.5" cy="64.5" r="3.5" fill="#ff8008" fill-opacity=".3"/><circle cx="58.5" cy="64.5" r="3.5" fill="#ff8008" fill-opacity=".3"/><circle cx="25.5" cy="51.5" r="3.5" fill="#ff8008" fill-opacity=".3"/><circle cx="36.5" cy="51.5" r="3.5" fill="#ff8008" fill-opacity=".3"/><circle cx="3.5" cy="88.5" r="3.5" fill="#ff8008" fill-opacity=".3"/><circle cx="14.5" cy="88.5" r="3.5" fill="#ff8008" fill-opacity=".3"/><circle cx="3.5" cy="76.5" r="3.5" fill="#ff8008" fill-opacity=".3"/><circle cx="14.5" cy="76.5" r="3.5" fill="#ff8008" fill-opacity=".3"/><circle cx="3.5" cy="64.5" r="3.5" fill="#ff8008" fill-opacity=".3"/><circle cx="14.5" cy="64.5" r="3.5" fill="#ff8008" fill-opacity=".3"/><circle cx="3.5" cy="51.5" r="3.5" fill="#ff8008" fill-opacity=".3"/><circle cx="14.5" cy="51.5" r="3.5" fill="#ff8008" fill-opacity=".3"/><circle cx="47.5" cy="51.5" r="3.5" fill="#ff8008" fill-opacity=".3"/><circle cx="58.5" cy="51.5" r="3.5" fill="#ff8008" fill-opacity=".3"/><circle cx="25.5" cy="40.5" r="3.5" fill="#ff8008" fill-opacity=".3"/><circle cx="36.5" cy="40.5" r="3.5" fill="#ff8008" fill-opacity=".3"/><circle cx="47.5" cy="40.5" r="3.5" fill="#ff8008" fill-opacity=".3"/><circle cx="58.5" cy="40.5" r="3.5" fill="#ff8008" fill-opacity=".3"/><circle cx="25.5" cy="28.5" r="3.5" fill="#ff8008" fill-opacity=".3"/><circle cx="36.5" cy="28.5" r="3.5" fill="#ff8008" fill-opacity=".3"/><circle cx="47.5" cy="28.5" r="3.5" fill="#ff8008" fill-opacity=".3"/><circle cx="58.5" cy="28.5" r="3.5" fill="#ff8008" fill-opacity=".3"/><circle cx="25.5" cy="16.5" r="3.5" fill="#ff8008" fill-opacity=".3"/><circle cx="36.5" cy="16.5" r="3.5" fill="#ff8008" fill-opacity=".3"/><circle cx="47.5" cy="16.5" r="3.5" fill="#ff8008" fill-opacity=".3"/><circle cx="58.5" cy="16.5" r="3.5" fill="#ff8008" fill-opacity=".3"/><circle cx="25.5" cy="3.5" r="3.5" fill="#ff8008" fill-opacity=".3"/><circle cx="36.5" cy="3.5" r="3.5" fill="#ff8008" fill-opacity=".3"/><circle cx="3.5" cy="40.5" r="3.5" fill="#ff8008" fill-opacity=".3"/><circle cx="14.5" cy="40.5" r="3.5" fill="#ff8008" fill-opacity=".3"/><circle cx="3.5" cy="28.5" r="3.5" fill="#ff8008" fill-opacity=".3"/><circle cx="14.5" cy="28.5" r="3.5" fill="#ff8008" fill-opacity=".3"/><circle cx="3.5" cy="16.5" r="3.5" fill="#ff8008" fill-opacity=".3"/><circle cx="14.5" cy="16.5" r="3.5" fill="#ff8008" fill-opacity=".3"/><circle cx="3.5" cy="3.5" r="3.5" fill="#ff8008" fill-opacity=".3"/><circle cx="14.5" cy="3.5" r="3.5" fill="#ff8008" fill-opacity=".3"/><circle cx="47.5" cy="3.5" r="3.5" fill="#ff8008" fill-opacity=".3"/><circle cx="58.5" cy="3.5" r="3.5" fill="#ff8008" fill-opacity=".3"/></svg>